<svg id="Layer_1" data-name="Layer 1" xmlns="http://www.w3.org/2000/svg" viewBox="0 0 550.06 244.34"><defs><style>.cls-1{fill:#45b54c;}.cls-2{fill:#fff;}</style></defs><g id="Azell"><path id="Path_73" data-name="Path 73" class="cls-1" d="M0,12.88a10.19,10.19,0,0,0,.65-1.57c.77-3.4,1.5-6.8,2.25-10.2.08-.36.21-.71.31-1C11.4-.78,19,6,19,14.07c0,5,0,10,0,15v1.9l2.24.29a16,16,0,0,1,10.47,5.4,12.12,12.12,0,0,1,3.08,8.24q0,7.73,0,15.44A16.91,16.91,0,0,0,35,62h0a8.44,8.44,0,0,1-4.43-.17A18.46,18.46,0,0,1,19.53,55.5,14.14,14.14,0,0,1,16.39,43c.7-3.3,1.42-6.6,2.13-9.9.12-.57.22-1.14.36-1.89L16.47,31A19.34,19.34,0,0,1,4.75,25.48,15.29,15.29,0,0,1,.62,18.32,6.25,6.25,0,0,0,0,17.08Z"/><path id="Path_74" data-name="Path 74" class="cls-1" d="M0,78.94C2.53,79,5,79,7.56,79A21.62,21.62,0,0,1,28.22,94.69a16.33,16.33,0,0,1,.76,5.64c-.14.1-.23.21-.31.21-4.17,0-8.39.56-12.47-.65C7.81,97.39,2.64,91.82.64,83.31A18,18,0,0,0,0,81.52Z"/><path id="Path_75" data-name="Path 75" class="cls-2" d="M227.24,154c-1.7,4.26-4,8.21-4.76,12.8a6.07,6.07,0,0,0,2.78,6.52,18.47,18.47,0,0,0,5.82,2.27c.46.12.93.21,1.48.34v1.63H205.7l-.1-1.46c.45-.18.83-.35,1.23-.48a15,15,0,0,0,8.76-6.93,95.07,95.07,0,0,0,4.37-8.6q14.86-34.17,29.65-68.38a7.78,7.78,0,0,0,.77-4.19,20.19,20.19,0,0,1,0-2.58c6.91-3.81,14.13-7.18,21.28-10.9,1.14,5.76,3.69,10.85,5.76,16.1q14.12,35.79,28.34,71.53a53,53,0,0,0,4.6,9.38,9.89,9.89,0,0,0,7,4.65,9,9,0,0,1,1.05.26,1.4,1.4,0,0,1,.16.34c0,.36,0,.73,0,1.22H271.75c0-.48-.05-.93-.08-1.43a2.81,2.81,0,0,1,.62-.26c1.85-.31,3.72-.51,5.55-.92a7.41,7.41,0,0,0,6.12-6.45,8.16,8.16,0,0,0-.3-3.8c-1.22-3.59-2.66-7.11-4-10.67Zm1.68-4.14c1.88.36,47.68.3,49,0L254.36,91.05C245.79,110.85,237.38,130.28,228.92,149.85Z"/><path id="Path_76" data-name="Path 76" class="cls-2" d="M550.06,176v1.66H520.51c.35-2.57.69-4.94,1-7.32a24.52,24.52,0,0,0,.27-3.2q0-40.68,0-81.36a14.56,14.56,0,0,0-.11-2.09c-.21-1.47-.89-2.16-2.37-2.07a38.67,38.67,0,0,0-5.24.75c-1.62.34-3.2.87-5,1.36V81.5l34-15.82c-.22,2.2-.41,4.1-.59,6-.08.91-.18,1.82-.18,2.73q0,44.31,0,88.61a49.05,49.05,0,0,0,.55,6.4c.42,3.1,2.33,5,5.24,5.91Z"/><path id="Path_77" data-name="Path 77" class="cls-2" d="M507.46,176v1.53H477.93a9.48,9.48,0,0,1,0-1.41c.34-2.5.72-5,1.06-7.49a11.47,11.47,0,0,0,.1-1.76q0-40.27,0-80.53a16.56,16.56,0,0,0-.2-2.73c-.26-1.52-.88-2.12-2.39-2a37.19,37.19,0,0,0-5.24.77c-1.62.34-3.2.86-4.92,1.34V81.51l34-15.82c-.11,1.31-.22,2.4-.29,3.49-.17,2.73-.45,5.46-.46,8.19q0,42.84,0,85.68a53.26,53.26,0,0,0,.48,5.93c.4,3.43,2.39,5.51,5.65,6.46Z"/><path id="Path_78" data-name="Path 78" class="cls-2" d="M418.41,138.84c.17,2,.25,3.8.48,5.58a32.74,32.74,0,0,0,4.5,13.32c4.94,7.94,12.12,12.11,21.46,12.38a46.75,46.75,0,0,0,8-.46c5.25-.77,9.92-2.75,13.26-7.28l1.73,1.25c-.3.54-.56,1.05-.86,1.53a23.13,23.13,0,0,1-6.88,6.91,37.46,37.46,0,0,1-16.3,6.05,51.23,51.23,0,0,1-20.91-1.22c-9.94-2.84-17.55-8.62-22.2-18a33.39,33.39,0,0,1-3.2-15.46q.21-17.52,14.47-27.65a41.79,41.79,0,0,1,12.21-6,46.45,46.45,0,0,1,25.26-.84c6.73,1.73,11.92,5.55,15,11.91a13.07,13.07,0,0,1,.54,10.77,10.36,10.36,0,0,1-8.71,7,25.23,25.23,0,0,1-3.69.25q-16,0-32,0Zm.1-3.84c.55,0,.87.05,1.18.05,5.37,0,10.73-.06,16.09-.12,2.79,0,5.58-.1,8.36-.15a3.87,3.87,0,0,0,3.7-2.61,6.85,6.85,0,0,0,.42-1.38A17,17,0,0,0,444,115.57c-5.35-6-13.71-5.84-19,.19a22.53,22.53,0,0,0-4.16,7A37.3,37.3,0,0,0,418.51,135Z"/><path id="Path_79" data-name="Path 79" class="cls-1" d="M72.21,244.34c-.67-.54-1-.82-1.41-1.13L26.45,204.12a2.3,2.3,0,0,1-.88-2.35c1.41-9.66,2.77-19.33,4.14-29q1.61-11.31,3.22-22.63a2.23,2.23,0,0,1,.16-.43c3.79,1.9,17.08,19,22.89,29.59A129.57,129.57,0,0,1,72.21,244.34Z"/><path id="Path_80" data-name="Path 80" class="cls-2" d="M388.58,152.22c-1.3,8.42-2.59,16.83-3.9,25.32H321.22l-.08-.22c.36-.16.71-.36,1.08-.5a15.65,15.65,0,0,0,5.71-3.82,56.25,56.25,0,0,0,8.24-10.68c3.75-6.14,7.37-12.35,11-18.57q8.75-15,17.42-30.1c.28-.49.54-1,.91-1.7-.62,0-1-.07-1.44-.06-4.45.07-8.91,0-13.35.28a38.19,38.19,0,0,0-7.42,1.37,18.67,18.67,0,0,0-9.81,6.69,43.09,43.09,0,0,0-5.78,10.19,22.09,22.09,0,0,1-1.86,3.74q1.95-12.68,3.9-25.33c1.2-.34,60.33-.45,62.72-.13,0,.44.05.9.07,1.34-.2.14-.31.27-.45.3a10.31,10.31,0,0,0-5.57,3.65,64.08,64.08,0,0,0-5,6.89c-4.11,6.73-8.09,13.54-12.08,20.35q-9.15,15.63-18.25,31.29c-.27.46-.52.93-.86,1.54a7,7,0,0,0,1.13.18c4-.06,7.95,0,11.91-.26a42.57,42.57,0,0,0,7.74-1.37,18.78,18.78,0,0,0,10.26-7.11,43.47,43.47,0,0,0,5.33-9.53c.54-1.27,1.08-2.55,1.61-3.83Z"/><path id="Path_81" data-name="Path 81" class="cls-1" d="M109.45,62.08c0-.75.1-1.49.1-2.24,0-4.56,0-9.13,0-13.69,0-7.57,4.26-12.92,11.69-14.59,1.3-.3,2.63-.43,4.13-.66V29.17c0-5,0-10.09,0-15.13a12.68,12.68,0,0,1,4.92-10.38A16.33,16.33,0,0,1,141.07-.07a7.82,7.82,0,0,1,.36.91q1.17,5.34,2.32,10.69c1.27,6-.63,10.91-5.15,14.86A19,19,0,0,1,127.65,31c-.69.06-1.37.14-2.19.23.58,2.7,1.12,5.25,1.67,7.8.28,1.31.58,2.62.85,3.93a14.31,14.31,0,0,1-4.17,13.7,19.16,19.16,0,0,1-13.64,5.6,2.83,2.83,0,0,1-.76-.19Z"/><path id="Path_82" data-name="Path 82" class="cls-1" d="M50.49,93.57c3-.28,5.15,1.11,6.79,3.44a11.73,11.73,0,0,1,1.1,2.32,118,118,0,0,1,7.72,32c.35,3.68.46,7.39.67,11.08,0,.37,0,.74,0,1.09,1.17.37,8.41.47,10.76.15,0-.49.08-1,.08-1.53a122.37,122.37,0,0,1,8.47-43A8.11,8.11,0,0,1,92,93.63a11,11,0,0,1,1.9-.1l-.05,0a136.76,136.76,0,0,0-8.09,26.4A145,145,0,0,0,83,147.22,10.78,10.78,0,0,1,61.54,149h0c-.22-1.86-.2-3.75-.25-5.62A139,139,0,0,0,50.9,94.22a7.92,7.92,0,0,0-.37-.71Z"/><path id="Path_83" data-name="Path 83" class="cls-1" d="M50.53,93.51A21.74,21.74,0,0,1,40.67,91c-4.43-2.46-7.57-6-8.53-11.07a13.7,13.7,0,0,1-.1-4.78c.75-4.16,1.74-8.28,2.64-12.41A3.57,3.57,0,0,1,35,62h0l2.83.46a15.79,15.79,0,0,1,10.39,6.17,11.29,11.29,0,0,1,2.38,6.72c0,5.85,0,11.71,0,17.56a2.63,2.63,0,0,1-.13.62Z"/><path id="Path_84" data-name="Path 84" class="cls-1" d="M109.41,62.05c.43,1.75.89,3.51,1.29,5.27q.73,3.21,1.41,6.43c1.37,6.38-.76,11.5-5.74,15.5a20,20,0,0,1-12.54,4.23l0,.06a1.18,1.18,0,0,1-.1-.3c0-6.1-.09-12.2.06-18.3A11.71,11.71,0,0,1,98,66.55a16.93,16.93,0,0,1,10.16-4.28l1.26-.18Z"/><path id="Path_85" data-name="Path 85" class="cls-1" d="M144.1,79a19.19,19.19,0,0,1-2.46,10.13c-4.14,7.38-10.46,11.28-19,11.46-2.36.05-4.71,0-7.12,0a9.29,9.29,0,0,1,.25-4.35A21.6,21.6,0,0,1,136.69,79C139.09,79,141.5,79,144.1,79Z"/><path id="Path_86" data-name="Path 86" class="cls-1" d="M43.45,115a7.15,7.15,0,0,1,7.18,7.14h0a7.19,7.19,0,0,1-7.09,7.26H43.4a7.2,7.2,0,0,1-.07-14.4A.24.24,0,0,1,43.45,115Z"/><path id="Path_87" data-name="Path 87" class="cls-1" d="M100.94,115a7.18,7.18,0,0,1,7.25,7.12.24.24,0,0,1,0,.12,7.21,7.21,0,0,1-14.42,0v-.15a7.14,7.14,0,0,1,7.17-7.14Z"/></g></svg>