<svg id="Layer_1" data-name="Layer 1" xmlns="http://www.w3.org/2000/svg" viewBox="0 0 76 76"><defs><style>.cls-1{fill:#00303c;}.cls-2{fill:#fff;}</style></defs><g id="Titulo_de_pestaña" data-name="Titulo de pestaña"><circle id="Ellipse_4" data-name="Ellipse 4" class="cls-1" cx="38" cy="38" r="38"/></g><g id="Azell_Menu" data-name="Azell Menu"><path id="Path_88" data-name="Path 88" class="cls-2" d="M21.6,13.57a2.39,2.39,0,0,0,.15-.37c.18-.78.35-1.57.52-2.35,0-.08.05-.16.07-.24A3.36,3.36,0,0,1,26,13.66c0,.06,0,.12,0,.18v3.89l.52.07a3.67,3.67,0,0,1,2.41,1.25,2.83,2.83,0,0,1,.72,1.9c0,1.19,0,2.37,0,3.56a2.71,2.71,0,0,0,0,.4h0a1.87,1.87,0,0,1-1,0,4.24,4.24,0,0,1-2.55-1.47,3.27,3.27,0,0,1-.73-2.88c.16-.76.33-1.52.49-2.28,0-.13.06-.27.09-.44l-.56-.06a4.46,4.46,0,0,1-2.7-1.27,3.52,3.52,0,0,1-.95-1.65,1.59,1.59,0,0,0-.15-.29Z"/><path id="Path_89" data-name="Path 89" class="cls-2" d="M21.6,28.82l1.74,0a5,5,0,0,1,4.77,3.61,3.59,3.59,0,0,1,.18,1.3s-.06,0-.08,0a9.86,9.86,0,0,1-2.87-.15,4.93,4.93,0,0,1-3.6-3.83,2.83,2.83,0,0,0-.14-.41Z"/><path id="Path_90" data-name="Path 90" class="cls-2" d="M38.27,67l-.33-.26-10.24-9a.55.55,0,0,1-.2-.54c.33-2.23.64-4.46,1-6.7.25-1.74.5-3.48.74-5.22a1,1,0,0,1,0-.1c.87.44,3.94,4.39,5.28,6.83A29.87,29.87,0,0,1,38.27,67Z"/><path id="Path_91" data-name="Path 91" class="cls-2" d="M46.86,24.93c0-.18,0-.35,0-.52V21.25a3.24,3.24,0,0,1,2.7-3.37c.3-.07.61-.1.95-.15v-.4c0-1.17,0-2.33,0-3.5a3,3,0,0,1,1.14-2.4,3.81,3.81,0,0,1,2.49-.86,1.8,1.8,0,0,1,.08.21c.18.83.36,1.65.53,2.47a3.35,3.35,0,0,1-1.18,3.43,4.35,4.35,0,0,1-2.53,1.06l-.5.05c.13.63.26,1.21.38,1.8.07.3.14.6.2.91a3.3,3.3,0,0,1-1,3.16A4.41,4.41,0,0,1,47,25a.47.47,0,0,1-.17,0Z"/><path id="Path_92" data-name="Path 92" class="cls-2" d="M33.25,32.19a1.69,1.69,0,0,1,1.57.8,2.65,2.65,0,0,1,.25.54,27.11,27.11,0,0,1,1.79,7.37c.08.85.1,1.71.15,2.56v.25a12.19,12.19,0,0,0,2.49,0c0-.12,0-.24,0-.36a28.17,28.17,0,0,1,1.95-9.93,1.89,1.89,0,0,1,1.36-1.25,2.16,2.16,0,0,1,.44,0h0a31,31,0,0,0-1.87,6.1,33.43,33.43,0,0,0-.64,6.31,2.48,2.48,0,0,1-4.94.41h0a11.31,11.31,0,0,1-.06-1.3,32.3,32.3,0,0,0-2.4-11.35l-.09-.16Z"/><path id="Path_93" data-name="Path 93" class="cls-2" d="M33.26,32.18A5.07,5.07,0,0,1,31,31.6,3.64,3.64,0,0,1,29,29a3.38,3.38,0,0,1,0-1.1c.18-1,.41-1.91.61-2.86a.8.8,0,0,1,.08-.16h0l.65.1a3.66,3.66,0,0,1,2.4,1.42A2.66,2.66,0,0,1,33.28,28c0,1.35,0,2.7,0,4a.32.32,0,0,1,0,.14Z"/><path id="Path_94" data-name="Path 94" class="cls-2" d="M46.85,24.92l.3,1.22c.12.49.22,1,.33,1.48a3.4,3.4,0,0,1-1.33,3.58,4.59,4.59,0,0,1-2.9,1l0,0,0-.07c0-1.41,0-2.82,0-4.23a2.69,2.69,0,0,1,1-1.93,3.92,3.92,0,0,1,2.34-1l.29,0Z"/><path id="Path_95" data-name="Path 95" class="cls-2" d="M54.86,28.83a4.44,4.44,0,0,1-.57,2.34,4.86,4.86,0,0,1-4.38,2.65H48.27a2.3,2.3,0,0,1,0-1,5,5,0,0,1,4.83-4Z"/><path id="Path_96" data-name="Path 96" class="cls-2" d="M31.63,37.15a1.64,1.64,0,0,1,1.65,1.64,1.65,1.65,0,0,1-1.63,1.68h0a1.66,1.66,0,0,1,0-3.32Z"/><path id="Path_97" data-name="Path 97" class="cls-2" d="M44.9,37.15a1.65,1.65,0,0,1,1.67,1.64v0a1.67,1.67,0,0,1-3.33,0v0a1.64,1.64,0,0,1,1.66-1.65Z"/></g></svg>