<svg xmlns="http://www.w3.org/2000/svg" width="34.563" height="51.5" viewBox="0 0 34.563 51.5">
  <g id="Cel" transform="translate(0.75 0.75)">
    <g id="Layer_1" data-name="Layer 1" transform="translate(0 0)">
      <g id="payment_gateway_security_phone_mobile_check_mark" data-name="payment gateway, security, phone, mobile, check mark">
        <rect id="Rectangle_24" data-name="Rectangle 24" width="25.857" height="49.991" rx="11.32" fill="#fff"/>
        <path id="Path_88" data-name="Path 88" d="M34.592,57.135V11.387a5.787,5.787,0,0,0-.862-.067H13.05a1.721,1.721,0,0,0-1.73,1.73V57.863a3.4,3.4,0,0,0,.1.792H33.1A7.18,7.18,0,0,1,34.592,57.135Z" transform="translate(-8.734 -8.734)" fill="#eceff1"/>
        <rect id="Rectangle_25" data-name="Rectangle 25" width="24.995" height="41.372" transform="translate(0.862 4.31)" fill="#414042"/>
        <rect id="Rectangle_26" data-name="Rectangle 26" width="1.724" height="41.372" transform="translate(0.862 4.31)" fill="#a7a9ac"/>
        <path id="Path_89" data-name="Path 89" d="M63.264,22.683c-.283-.021-.57-.043-.862-.043a10.355,10.355,0,0,0,0,20.686c.3,0,.579-.021.862-.043Z" transform="translate(-37.406 -16.607)" fill="#231f20"/>
        <circle id="Ellipse_4467" data-name="Ellipse 4467" cx="9.481" cy="9.481" r="9.481" transform="translate(13.791 5.171)" fill="#3178ec"/>
        <path id="Path_90" data-name="Path 90" d="M66.994,27.956a10.115,10.115,0,0,1,.091,1.334,9.478,9.478,0,1,1-4.2-7.876" transform="translate(-34.332 -14.637)" fill="none" stroke="#455a64" stroke-linecap="round" stroke-linejoin="round" stroke-width="1.5"/>
        <path id="Path_91" data-name="Path 91" d="M28.687,30.411V49.373A3.46,3.46,0,0,1,25.24,52.83H6.278A3.46,3.46,0,0,1,2.83,49.373V6.278A3.46,3.46,0,0,1,6.278,2.83H25.24a3.46,3.46,0,0,1,3.448,3.448" transform="translate(-2.83 -2.83)" fill="none" stroke="#455a64" stroke-linecap="round" stroke-linejoin="round" stroke-width="1.5"/>
        <line id="Line_61" data-name="Line 61" x1="5.171" transform="translate(10.343 3.448)" fill="none" stroke="#455a64" stroke-linecap="round" stroke-linejoin="round" stroke-width="1.5"/>
        <line id="Line_62" data-name="Line 62" x1="5.171" transform="translate(13.791 36.2)" fill="none" stroke="#455a64" stroke-linecap="round" stroke-linejoin="round" stroke-width="1.5"/>
        <line id="Line_63" data-name="Line 63" x1="8.619" transform="translate(13.791 32.753)" fill="none" stroke="#455a64" stroke-linecap="round" stroke-linejoin="round" stroke-width="1.5"/>
        <line id="Line_64" data-name="Line 64" x1="8.619" transform="translate(13.791 29.305)" fill="none" stroke="#455a64" stroke-linecap="round" stroke-linejoin="round" stroke-width="1.5"/>
        <path id="Path_92" data-name="Path 92" d="M78.881,29.25l-9.192,9.192-4.6-4.6" transform="translate(-46.128 -21.203)" fill="none" stroke="#455a64" stroke-linecap="round" stroke-linejoin="round" stroke-width="1.5"/>
        <path id="Path_93" data-name="Path 93" d="M66.994,27.956a10.115,10.115,0,0,1,.091,1.334,9.478,9.478,0,1,1-4.2-7.876" transform="translate(-34.332 -14.637)" fill="none" stroke="#00303c" stroke-linecap="round" stroke-linejoin="round" stroke-width="1.5"/>
        <path id="Path_94" data-name="Path 94" d="M28.687,30.411V49.373A3.46,3.46,0,0,1,25.24,52.83H6.278A3.46,3.46,0,0,1,2.83,49.373V6.278A3.46,3.46,0,0,1,6.278,2.83H25.24a3.46,3.46,0,0,1,3.448,3.448" transform="translate(-2.83 -2.83)" fill="none" stroke="#00303c" stroke-linecap="round" stroke-linejoin="round" stroke-width="1.5"/>
        <line id="Line_65" data-name="Line 65" x1="5.171" transform="translate(10.343 3.448)" fill="none" stroke="#00303c" stroke-linecap="round" stroke-linejoin="round" stroke-width="1.5"/>
        <line id="Line_66" data-name="Line 66" x1="5.171" transform="translate(13.791 36.2)" fill="none" stroke="#00303c" stroke-linecap="round" stroke-linejoin="round" stroke-width="1.5"/>
        <line id="Line_67" data-name="Line 67" x1="8.619" transform="translate(13.791 32.753)" fill="none" stroke="#00303c" stroke-linecap="round" stroke-linejoin="round" stroke-width="1.5"/>
        <line id="Line_68" data-name="Line 68" x1="8.619" transform="translate(13.791 29.305)" fill="none" stroke="#00303c" stroke-linecap="round" stroke-linejoin="round" stroke-width="1.5"/>
        <path id="Path_95" data-name="Path 95" d="M78.881,29.25l-9.192,9.192-4.6-4.6" transform="translate(-46.128 -21.203)" fill="none" stroke="#00303c" stroke-linecap="round" stroke-linejoin="round" stroke-width="1.5"/>
      </g>
    </g>
  </g>
</svg>
