<svg xmlns="http://www.w3.org/2000/svg" width="41.145" height="51.5" viewBox="0 0 41.145 51.5">
  <g id="Escudo" transform="translate(0.75 0.75)">
    <g id="Layer_1" data-name="Layer 1" transform="translate(0 0)">
      <g id="encryption">
        <path id="Path_96" data-name="Path 96" d="M33.44,46.154,22.668,52.83,11.9,46.154C7.848,43.647,3.459,39.965,3.459,33L2.85,11.449,22.668,2.83l19.821,8.619L41.88,33C41.88,40.038,37.488,43.647,33.44,46.154Z" transform="translate(-2.844 -2.83)" fill="#fff"/>
        <path id="Path_97" data-name="Path 97" d="M10.751,16.711,10.51,35.1c0,7.1,4.693,10.379,8.028,12.444l9.457,6.4,10.319-6.4c3.35-2.065,8.028-5.342,8.028-12.42l.609-21.015L28.007,5.89,12.283,14.147A3.28,3.28,0,0,0,10.751,16.711Z" transform="translate(-8.171 -4.958)" fill="#494a4a"/>
        <path id="Path_98" data-name="Path 98" d="M67.92,5.94V53.969l10.319-6.4c3.35-2.065,8.028-5.342,8.028-12.42l.609-21.015Z" transform="translate(-48.096 -4.993)" fill="#12100b"/>
        <circle id="Ellipse_4468" data-name="Ellipse 4468" cx="11.205" cy="11.205" r="11.205" transform="translate(8.619 12.07)" fill="#eaeaea"/>
        <path id="Path_99" data-name="Path 99" d="M47.993,48.11a11.2,11.2,0,0,0-8.732,18.219A11.2,11.2,0,0,0,55,50.58,11.15,11.15,0,0,0,47.993,48.11Z" transform="translate(-26.446 -34.319)" fill="#fff"/>
        <path id="Path_100" data-name="Path 100" d="M56.6,69.773A4.854,4.854,0,0,0,60.048,71.5h0A3.39,3.39,0,0,0,63.5,68.049c0-2.321-2.622-3.186-3.448-3.448s-2.586-1.157-2.586-2.586h0a2.586,2.586,0,0,1,2.586-2.586h0a5.019,5.019,0,0,1,2.586.874" transform="translate(-40.224 -42.192)" fill="none" stroke="#455a64" stroke-linecap="round" stroke-linejoin="round" stroke-width="1.5"/>
        <line id="Line_69" data-name="Line 69" y1="1.724" transform="translate(19.824 29.305)" fill="none" stroke="#455a64" stroke-linecap="round" stroke-linejoin="round" stroke-width="1.5"/>
        <line id="Line_70" data-name="Line 70" y1="1.724" transform="translate(19.824 15.514)" fill="none" stroke="#455a64" stroke-linecap="round" stroke-linejoin="round" stroke-width="1.5"/>
        <path id="Path_101" data-name="Path 101" d="M39.475,42.821a11.2,11.2,0,1,1-3.426,1.556" transform="translate(-22.508 -30.383)" fill="none" stroke="#455a64" stroke-linecap="round" stroke-linejoin="round" stroke-width="1.5"/>
        <path id="Path_102" data-name="Path 102" d="M56.6,69.773A4.854,4.854,0,0,0,60.048,71.5h0A3.39,3.39,0,0,0,63.5,68.049c0-2.321-2.622-3.186-3.448-3.448s-2.586-1.157-2.586-2.586h0a2.586,2.586,0,0,1,2.586-2.586h0a5.019,5.019,0,0,1,2.586.874" transform="translate(-40.224 -42.192)" fill="none" stroke="#00303c" stroke-linecap="round" stroke-linejoin="round" stroke-width="1.5"/>
        <line id="Line_71" data-name="Line 71" y1="1.724" transform="translate(19.824 29.305)" fill="none" stroke="#00303c" stroke-linecap="round" stroke-linejoin="round" stroke-width="1.5"/>
        <line id="Line_72" data-name="Line 72" y1="1.724" transform="translate(19.824 15.514)" fill="none" stroke="#00303c" stroke-linecap="round" stroke-linejoin="round" stroke-width="1.5"/>
        <path id="Path_103" data-name="Path 103" d="M39.475,42.821a11.2,11.2,0,1,1-3.426,1.556" transform="translate(-22.508 -30.383)" fill="none" stroke="#00303c" stroke-linecap="round" stroke-linejoin="round" stroke-width="1.5"/>
        <path id="Path_104" data-name="Path 104" d="M2.9,14.035,2.83,11.449,22.654,2.83l19.821,8.619L41.866,33c0,7.035-4.389,10.66-8.436,13.154L22.654,52.83,11.885,46.154C7.834,43.647,3.445,39.965,3.445,33L3.028,18.341" transform="translate(-2.83 -2.83)" fill="none" stroke="#00303c" stroke-linecap="round" stroke-linejoin="round" stroke-width="1.5"/>
        <path id="Path_105" data-name="Path 105" d="M46.44,41.582l.548-19.318L30.679,15.17,14.37,22.263l.548,19.218c0,5.385,3.271,8.135,6.8,10.322l8.957,5.543L39.636,51.8C43.721,49.275,46.44,46.57,46.44,41.582Z" transform="translate(-10.855 -11.412)" fill="none" stroke="#00303c" stroke-linecap="round" stroke-linejoin="round" stroke-width="1.5"/>
      </g>
    </g>
  </g>
</svg>
