<svg id="Layer_1" data-name="Layer 1" xmlns="http://www.w3.org/2000/svg" viewBox="0 0 197.93 188.8"><defs><style>.cls-1{fill:#3178ec;}</style></defs><g id="Group_4544" data-name="Group 4544"><path id="Path_40" data-name="Path 40" class="cls-1" d="M182.45,66.21c-20.26,12.6-27.74,24.71-6.8,39.94L122,84.83l24-47.9c-4.21,18.18,3.36,28.66,34.63,25.26C166.87,34.11,135.49,14.51,99,14.51a101.15,101.15,0,0,0-14.85,1.1c17.26,27.14,33.3,45.23,57.53,17.46L116.8,82.76,65.19,62.24C92.82,64.58,95.68,48.6,83,15.77,41.42,22.49,9.84,55,9.84,94.06c0,43.95,39.9,79.55,89.13,79.55A96.09,96.09,0,0,0,152,158c-20.54-28.35-34.79-46.09-58.25-16.7l25.77-51.5,57.27,22.76c-26.46-5.36-38.62,4-23.82,44.77,21.32-14.52,35.09-37.47,35.09-63.27A71.82,71.82,0,0,0,182.45,66.21ZM89.26,137.83c5.24-29.34-16.63-32.92-65.75-17,54-22.35,62-36.65,36.63-54.62l54.19,21.54Z"/></g></svg>