<svg id="Layer_1" data-name="Layer 1" xmlns="http://www.w3.org/2000/svg" viewBox="0 0 197 188.8"><defs><style>.cls-1{fill:#3178ec;}</style></defs><path id="BID" class="cls-1" d="M103.25,110c-14.69,23.78,32.5,24.14,10.67,68.58-.64.11-1.28.23-1.93.33A93.11,93.11,0,0,1,21.67,34.11C19.3,87.81,117,87.75,103.25,110m20.82,66.3c5-9.36,16-23,39.39-50.5,35-41.13-68.73-27.32-86.5-58.45C62.32,41.66,116.8,23.22,149.72,9a93.1,93.1,0,0,1-25.65,167.3M93.34,58.79c-3.49,1.84,2.76,9.95,18.75,10.39s-4.62-17.8-18.75-10.39m35.29,8.69c-12-3.88-4.1,5.7,1.6,6.34s6.89-3.6-1.6-6.34m12.51,9.38c-4-.16-4.7,2.24,1.29,3.51,8.45,1.79,2.7-3.34-1.29-3.51"/></svg>