<svg id="Layer_1" data-name="Layer 1" xmlns="http://www.w3.org/2000/svg" viewBox="0 0 197.93 188.8"><defs><style>.cls-1{fill:#3178ec;}</style></defs><g id="Equiti"><path id="Path_61" data-name="Path 61" class="cls-1" d="M77.25,44.53v59.13a9.81,9.81,0,0,0,9.8,9.81H95.8v34.38H91.55A54.56,54.56,0,0,1,37,93.27h0V54.47A54.56,54.56,0,0,1,91.54-.11H95.8V34.74H87.05a9.79,9.79,0,0,0-9.8,9.78Z"/><path id="Path_62" data-name="Path 62" class="cls-1" d="M161,21.29V185.57a3.12,3.12,0,0,1-3.12,3.11H124.71a3.1,3.1,0,0,1-3.12-3.1h0V145.93a54.08,54.08,0,0,1-15.22,2.15h-4.24V113.47h9.66a9.81,9.81,0,0,0,9.8-9.81h0V44.53a9.79,9.79,0,0,0-9.79-9.79h-9.67V.12c19.34.48,42.3,4.53,54.57,13A10,10,0,0,1,161,21.29Z"/></g></svg>