<svg id="Layer_1" data-name="Layer 1" xmlns="http://www.w3.org/2000/svg" viewBox="0 0 197.93 188.8"><defs><style>.cls-1{fill:#3178ec;}</style></defs><g id="Group_4546" data-name="Group 4546"><path id="Path_63" data-name="Path 63" class="cls-1" d="M197.93,9.78V21.22a9.4,9.4,0,0,0-9.39-9.39h-76.6a9.38,9.38,0,0,0-9.2,7.56H0V9.78A9.78,9.78,0,0,1,9.76,0H188.15A9.79,9.79,0,0,1,197.93,9.78Z"/><path id="Path_64" data-name="Path 64" class="cls-1" d="M197.93,21.57V46.1a9.38,9.38,0,0,0-9.38-9.37H111.94a9.36,9.36,0,0,0-9.2,7.54H0V23.39H102.74a9.37,9.37,0,0,0,9.2,7.54h76.6A9.38,9.38,0,0,0,197.93,21.57Z"/><path id="Path_65" data-name="Path 65" class="cls-1" d="M197.93,46.45V71a9.4,9.4,0,0,0-9.39-9.38h-76.6a9.37,9.37,0,0,0-9.2,7.54H0V48.29H102.74a9.37,9.37,0,0,0,9.2,7.54h76.6A9.39,9.39,0,0,0,197.93,46.45Z"/><path id="Path_66" data-name="Path 66" class="cls-1" d="M197.93,71.35V82.77a9.78,9.78,0,0,1-9.77,9.78H9.76A9.77,9.77,0,0,1,0,82.77H0V73.18H102.74a9.39,9.39,0,0,0,9.2,7.54h76.6a9.38,9.38,0,0,0,9.39-9.36Z"/><path id="Path_67" data-name="Path 67" class="cls-1" d="M0,106v11.44a9.4,9.4,0,0,1,9.39-9.39H86a9.38,9.38,0,0,1,9.2,7.57H197.93V106a9.77,9.77,0,0,0-9.76-9.77H9.78A9.77,9.77,0,0,0,0,106Z"/><path id="Path_68" data-name="Path 68" class="cls-1" d="M0,117.81v24.53A9.38,9.38,0,0,1,9.38,133H86a9.36,9.36,0,0,1,9.2,7.54H197.93V119.64H95.18a9.35,9.35,0,0,1-9.2,7.54H9.38A9.38,9.38,0,0,1,0,117.81Z"/><path id="Path_69" data-name="Path 69" class="cls-1" d="M0,142.7v24.55a9.38,9.38,0,0,1,9.39-9.39H86a9.39,9.39,0,0,1,9.2,7.54H197.93V144.54H95.18a9.37,9.37,0,0,1-9.2,7.54H9.38A9.38,9.38,0,0,1,0,142.7Z"/><path id="Path_70" data-name="Path 70" class="cls-1" d="M0,167.6V179a9.78,9.78,0,0,0,9.76,9.78H188.17a9.78,9.78,0,0,0,9.76-9.78h0v-9.6H95.18A9.35,9.35,0,0,1,86,177H9.38A9.37,9.37,0,0,1,0,167.6Z"/></g></svg>