<svg xmlns="http://www.w3.org/2000/svg" xmlns:xlink="http://www.w3.org/1999/xlink" width="216.268" height="150.467" viewBox="0 0 216.268 150.467">
  <defs>
    <clipPath id="clip-path">
      <rect id="Rectangle_53" data-name="Rectangle 53" width="216.268" height="150.467" fill="#3178ec"/>
    </clipPath>
  </defs>
  <g id="Group_4554" data-name="Group 4554" transform="translate(0 0)">
    <g id="Group_4553" data-name="Group 4553" transform="translate(0 0)" clip-path="url(#clip-path)">
      <path id="Path_102" data-name="Path 102" d="M126.792,0v19.26h44.065a18.541,18.541,0,0,1,18.529,18.553v76.152a19.468,19.468,0,0,1-5.163,13.2,15.043,15.043,0,0,1-11.054,4.838l-21.9,0-.4-47.748h24.876V66.005H125.186v54.368l-32.1-54.368H41.328V84.261H65.4v47.748H43.309a15.976,15.976,0,0,1-11.965-5.39,17.765,17.765,0,0,1-4.461-11.772V36.371a15.83,15.83,0,0,1,3.382-9.778,18.138,18.138,0,0,1,14.259-6.93H89.877L89.477,0H27.385a2.816,2.816,0,0,0-.973.173A40.282,40.282,0,0,0,0,38v76.427a18.913,18.913,0,0,0,1.015,6.114L3.049,126.5a38.346,38.346,0,0,0,21.516,23,12.53,12.53,0,0,0,4.831.969H91.884l.4-54.168,30.9,54.168h63.19a16.729,16.729,0,0,0,5.84-1.053l1.288-.479A35.656,35.656,0,0,0,215.071,126.2a26.134,26.134,0,0,0,1.2-7.816l0-82.512a29.181,29.181,0,0,0-1.647-9.662l-3.176-9.048A25,25,0,0,0,194.178,1.254,38.509,38.509,0,0,0,184.431,0Z" transform="translate(0 0.001)" fill="#3178ec"/>
    </g>
  </g>
</svg>
