<svg id="Layer_1" data-name="Layer 1" xmlns="http://www.w3.org/2000/svg" viewBox="0 0 197.93 188.8"><defs><style>.cls-1{fill:#3178ec;}</style></defs><g id="GreeN"><g id="Group_4545" data-name="Group 4545"><circle id="Ellipse_4468" data-name="Ellipse 4468" class="cls-1" cx="72.94" cy="42.5" r="42.1"/><circle id="Ellipse_4469" data-name="Ellipse 4469" class="cls-1" cx="47.57" cy="156.57" r="31.83"/><circle id="Ellipse_4470" data-name="Ellipse 4470" class="cls-1" cx="160.72" cy="114.2" r="21.47"/></g><path id="Path_50" data-name="Path 50" class="cls-1" d="M144.31,139.1a62.85,62.85,0,0,1-53.1,29.15c-2,0-4-.1-6-.29h0a38.55,38.55,0,0,1-6.7,12.62,74.83,74.83,0,0,0,12.68,1.06,76.35,76.35,0,0,0,66-37.86A29.25,29.25,0,0,1,144.31,139.1Zm-117.49-75a76.56,76.56,0,0,0-8,65.57A39.54,39.54,0,0,1,30.28,121a63.13,63.13,0,0,1,5-44.49,51.25,51.25,0,0,1-8.45-12.42ZM123,35.76a54,54,0,0,1,.4,6.35,50.36,50.36,0,0,1-.76,8.75,63,63,0,0,1,28.47,35.28,29.58,29.58,0,0,1,9.46-1.55,29.28,29.28,0,0,1,4.29.31A76.55,76.55,0,0,0,123,35.76Z"/></g></svg>