<svg id="Layer_1" data-name="Layer 1" xmlns="http://www.w3.org/2000/svg" viewBox="0 0 197.93 188.8"><defs><style>.cls-1{fill:#166091;}.cls-2{fill:#2872c9;}.cls-3{fill:#2c73db;}.cls-4{fill:#3178ec;}.cls-5{fill:#1c68a5;}.cls-6{fill:#236db7;}</style></defs><g id="Ruby"><path id="Path_51" data-name="Path 51" class="cls-1" d="M161.31,58.16l-96.5-26L73,.4Z"/><path id="Path_52" data-name="Path 52" class="cls-2" d="M161.31,58.16l-56.2,53.47L57.92,58.77,64.8,32.13Z"/><path id="Path_53" data-name="Path 53" class="cls-3" d="M64.8,32.12,57.92,58.76,24.4,21.23Z"/><path id="Path_54" data-name="Path 54" class="cls-4" d="M46.73,102h0L24.4,188.4V21.23Z"/><path id="Path_55" data-name="Path 55" class="cls-3" d="M61,153.6,24.4,188.4,46.73,102Z"/><path id="Path_56" data-name="Path 56" class="cls-4" d="M173.53,188.4,61,153.6,83.74,132h0Z"/><path id="Path_57" data-name="Path 57" class="cls-5" d="M173.53,188.4,83.75,132l21.36-20.32Z"/><path id="Path_58" data-name="Path 58" class="cls-4" d="M73,.4,64.8,32.13,24.4,21.23Z"/><path id="Path_59" data-name="Path 59" class="cls-6" d="M57.92,58.76,46.74,102,24.4,21.23Z"/><path id="Path_60" data-name="Path 60" class="cls-1" d="M105.11,111.63,83.75,132h0L61,153.6,46.73,102h0L57.92,58.76Z"/></g></svg>