<svg id="Layer_1" data-name="Layer 1" xmlns="http://www.w3.org/2000/svg" viewBox="0 0 197.93 188.8"><defs><style>.cls-1,.cls-2{fill:#3178ec;}.cls-2{fill-rule:evenodd;}</style></defs><g id="Uni-2"><path id="Path_41-2" data-name="Path 41-2" class="cls-1" d="M81.35,43.15c-2-.29-2.13-.39-1.16-.48a31.73,31.73,0,0,1,9.11.78c7,1.64,13.28,5.91,20,13.38l1.75,2,2.52-.39a54.1,54.1,0,0,1,31,3.88,41.29,41.29,0,0,1,7,4.07,9.19,9.19,0,0,1,.67,2.72c.68,4.56.39,8-1.06,10.57-.78,1.45-.78,1.84-.29,3.1a2.93,2.93,0,0,0,2.62,1.65c2.32,0,4.75-3.69,5.91-8.83l.48-2,.88,1c4.94,5.52,8.82,13.18,9.4,18.61l.19,1.46-.87-1.26a16.4,16.4,0,0,0-4.65-4.95c-3.3-2.23-6.79-2.91-16-3.39-8.34-.49-13.09-1.17-17.75-2.72-8-2.62-12-6-21.42-18.52a90.11,90.11,0,0,0-9.4-11A32.92,32.92,0,0,0,81.35,43.15Z"/><path id="Path_42-2" data-name="Path 42-2" class="cls-1" d="M153.58,55.47a21,21,0,0,1,1.75-8.34,6.52,6.52,0,0,1,.87-1.65c.1,0-.1.68-.39,1.46a18.63,18.63,0,0,0-.39,8.53c.68,4.36,1,4.94,5.63,9.7,2.13,2.23,4.65,5,5.62,6.2l1.65,2.14L166.67,72a59.25,59.25,0,0,0-7.75-6.1c-.68-.39-.78-.39-1.27.1s-.48,1-.48,3.78c-.1,4.36-.68,7.08-2.13,9.89-.78,1.45-.88,1.16-.2-.49.49-1.26.58-1.84.58-6,0-8.43-1-10.47-6.88-13.86-1.45-.88-4-2.14-5.43-2.81a23.42,23.42,0,0,1-2.62-1.27c.2-.19,5.92,1.46,8.15,2.43C152,59,152.61,59.06,153,59,153.29,58.67,153.49,57.89,153.58,55.47Z"/><path id="Path_43-2" data-name="Path 43-2" class="cls-1" d="M85.32,69.92c-4.07-5.63-6.69-14.35-6.1-20.85l.19-2,1,.19a22.55,22.55,0,0,1,6.2,2.33c3.88,2.32,5.63,5.52,7.28,13.47.48,2.33,1.16,5,1.45,5.92a34.8,34.8,0,0,0,3.88,7c1.07,1.55.39,2.33-2,2.13C93.47,77.67,88.52,74.28,85.32,69.92Z"/><path id="Path_44-2" data-name="Path 44-2" class="cls-1" d="M148.64,112.09c-19.2-7.75-26-14.44-26-25.79,0-1.65.1-3,.1-3a15.63,15.63,0,0,1,1.65,1.26c3.88,3.1,8.24,4.46,20.36,6.2,7.08,1.07,11.15,1.84,14.84,3.1,11.73,3.88,19,11.83,20.74,22.59a38.82,38.82,0,0,1-.58,12.12c-.67,2.43-2.61,6.89-3.1,7-.1,0-.29-.48-.29-1.26a15.76,15.76,0,0,0-5.62-10.95C166.67,119.85,161.44,117.23,148.64,112.09Z"/><path id="Path_45-2" data-name="Path 45-2" class="cls-1" d="M135.06,115.29a22.74,22.74,0,0,0-1-4.07l-.48-1.45.87,1.06a17,17,0,0,1,3.1,5.63c.68,1.84.68,2.42.68,5.43s-.1,3.58-.68,5.23a17.53,17.53,0,0,1-4.07,6.5c-3.49,3.59-8,5.52-14.54,6.4-1.17.1-4.46.39-7.37.58-7.27.39-12.12,1.16-16.49,2.72-.58.19-1.16.38-1.26.29s2.82-1.94,5.24-3.1c3.39-1.65,6.88-2.52,14.54-3.88a64.67,64.67,0,0,0,8.63-1.75C131.86,131.87,136.61,124.41,135.06,115.29Z"/><path id="Path_46-2" data-name="Path 46-2" class="cls-1" d="M143.89,130.9q-3.79-8.28-1.75-15.7c.19-.49.39-1,.58-1a4.14,4.14,0,0,1,1.36.68c1.16.77,3.59,2.13,9.79,5.52,7.86,4.27,12.32,7.56,15.42,11.35a24,24,0,0,1,5.14,11.73,38.44,38.44,0,0,1-.49,11.53c-2.13,8.25-7,14.84-14.06,18.62a13,13,0,0,1-2,1,7.47,7.47,0,0,1,.87-2.13,19.25,19.25,0,0,0,.87-15c-1.07-3.3-3.3-7.27-7.76-14C146.51,135.75,145.24,133.72,143.89,130.9Z"/><path id="Path_47-2" data-name="Path 47-2" class="cls-1" d="M71.65,160.57c7.18-6,16-10.28,24.14-11.63a35.79,35.79,0,0,1,12.51.48c5.14,1.36,9.8,4.27,12.22,7.85s3.39,6.5,4.46,13.19c.39,2.62.87,5.33,1,5.92.77,3.49,2.33,6.2,4.26,7.66,3,2.23,8.25,2.32,13.39.38a6.71,6.71,0,0,1,1.64-.48c.2.19-2.42,1.94-4.17,2.81a13.68,13.68,0,0,1-7,1.65c-4.65,0-8.63-2.43-11.83-7.27a56.18,56.18,0,0,1-3.2-6.4c-3.39-7.86-5.13-10.18-9.11-12.8a11.94,11.94,0,0,0-11.34-1.07A7.29,7.29,0,0,0,95,170.54a7.17,7.17,0,0,0,1,1.66,10,10,0,0,0,5.53,2.91,5.91,5.91,0,0,0,6.64-5.09,5.64,5.64,0,0,0,0-.82c0-2.33-.87-3.69-3.2-4.75-3.1-1.36-6.5.19-6.4,3.2a2.66,2.66,0,0,0,1.84,2.61c.78.39.78.39.2.29-2.81-.58-3.49-4.07-1.26-6.3,2.71-2.71,8.43-1.55,10.37,2.23a10.16,10.16,0,0,1,.2,6.6A9.07,9.07,0,0,1,99,178.31c-3.2-.87-4.55-1.74-8.43-5.72-6.79-7-9.4-8.34-19.1-9.79l-1.84-.29Z"/><path id="Path_48-2" data-name="Path 48-2" class="cls-2" d="M20.65,4.57C43.24,32,78.05,74.67,79.8,77c1.45,1.94.87,3.79-1.55,5.14a14.91,14.91,0,0,1-5.53,1.55,7.05,7.05,0,0,1-4.66-2c-.87-.87-4.65-6.4-13.18-19.68-6.5-10.19-12-18.62-12.12-18.72-.39-.19-.39-.19,11.44,20.94,7.46,13.29,9.89,18,9.89,18.62,0,1.26-.39,1.94-1.94,3.68-2.62,2.91-3.78,6.21-4.65,13.1-1,7.65-3.59,13.08-11.06,22.3-4.36,5.42-5,6.4-6.1,8.63a16.26,16.26,0,0,0-1.94,7.75,24.13,24.13,0,0,0,1.26,9.5c1,3.1,2,5.14,4.65,9.12,2.23,3.49,3.59,6.1,3.59,7.07,0,.78.19.78,3.68,0,8.34-1.94,15.22-5.23,19-9.31,2.33-2.52,2.91-3.87,2.91-7.36a7.85,7.85,0,0,0-.68-4.08c-1-2.13-2.81-3.88-6.78-6.59-5.24-3.59-7.47-6.5-8.05-10.37-.49-3.3.1-5.53,3-11.64,3-6.3,3.78-8.92,4.27-15.32.29-4.07.78-5.72,1.94-7s2.33-1.84,5.33-2.23c5-.68,8.15-1.94,10.67-4.36a9.18,9.18,0,0,0,3.3-7.08l.1-2.23-1.26-1.36C80.77,69.82,17.65.39,17.36.39,17.26.4,18.81,2.24,20.65,4.57ZM50.42,142.44a4,4,0,0,0-1.26-5.33C47.51,136,45,136.52,45,138a1,1,0,0,0,.77,1c.88.48,1,1,.29,2s-.67,2,.2,2.72C47.61,144.77,49.45,144.19,50.42,142.44Z"/><path id="Path_49-2" data-name="Path 49-2" class="cls-2" d="M89.69,91.44a8.63,8.63,0,0,0-5.24,5.72c-.38,1.55-.19,4.37.49,5.24,1.06,1.36,2,1.74,4.75,1.74,5.33,0,9.89-2.32,10.37-5.14.49-2.32-1.55-5.52-4.36-7A9.91,9.91,0,0,0,89.69,91.44Zm6.2,4.85c.78-1.16.49-2.42-1-3.3-2.62-1.65-6.6-.29-6.6,2.23,0,1.26,2,2.62,4,2.62a5.38,5.38,0,0,0,3.58-1.55Z"/></g></svg>