<svg id="Layer_1" data-name="Layer 1" xmlns="http://www.w3.org/2000/svg" viewBox="0 0 333.45 384.09"><defs><style>.cls-1,.cls-2{fill:#ebf3fd;}.cls-2{fill-rule:evenodd;}</style></defs><g id="Uni"><path id="Path_41" data-name="Path 41" class="cls-1" d="M130.73,87.35c-4.16-.59-4.36-.79-2.38-1,3.77-.59,12.48.2,18.62,1.59,14.27,3.37,27.14,12.08,40.81,27.33l3.56,4.16,5.15-.79c22-3.56,44.57-.79,63.39,7.92,5.15,2.38,13.27,7.13,14.26,8.32.4.4,1,3,1.38,5.55,1.39,9.31.8,16.24-2.17,21.59-1.59,3-1.59,3.76-.6,6.34a6,6,0,0,0,5.35,3.37c4.76,0,9.7-7.53,12.08-18l1-4.16,1.79,2c10.1,11.29,18,26.94,19.21,38l.4,3L310.79,190a33.34,33.34,0,0,0-9.51-10.1c-6.74-4.56-13.87-5.94-32.68-6.93-17-1-26.74-2.38-36.25-5.55-16.24-5.35-24.56-12.28-43.78-37.83-8.52-11.29-13.86-17.43-19.21-22.58C157.67,95.67,146,89.73,130.73,87.35Z"/><path id="Path_42" data-name="Path 42" class="cls-1" d="M278.3,112.51c.4-7.53,1.38-12.48,3.56-17a13.8,13.8,0,0,1,1.79-3.37c.2,0-.2,1.38-.8,3-1.58,4.36-1.78,10.5-.79,17.43,1.39,8.91,2,10.1,11.49,19.81,4.36,4.55,9.51,10.3,11.49,12.68l3.37,4.35L305,146.18c-4.16-4-13.67-11.49-15.85-12.48-1.39-.79-1.58-.79-2.57.2-.8.8-1,2-1,7.73-.2,8.91-1.39,14.46-4.36,20.2-1.59,3-1.78,2.38-.4-1,1-2.58,1.19-3.77,1.19-12.28,0-17.24-2-21.39-14.07-28.33-3-1.78-8.12-4.36-11.09-5.74a44.6,44.6,0,0,1-5.35-2.58c.4-.4,12.09,3,16.64,5,6.93,2.78,8.12,3,8.92,2.78C277.7,119.05,278.1,117.46,278.3,112.51Z"/><path id="Path_43" data-name="Path 43" class="cls-1" d="M138.85,142c-8.32-11.49-13.67-29.31-12.48-42.58l.4-4.16,2,.4a46.34,46.34,0,0,1,12.68,4.75c7.92,4.75,11.49,11.29,14.86,27.53,1,4.76,2.37,10.3,3,12.09,1,3,4.75,9.9,7.92,14.26,2.18,3.17.8,4.75-4.16,4.36C155.49,157.87,145.39,150.94,138.85,142Z"/><path id="Path_44" data-name="Path 44" class="cls-1" d="M268.19,228.19c-39.22-15.85-53.08-29.52-53.08-52.69,0-3.37.2-6.14.2-6.14a36.54,36.54,0,0,1,3.37,2.57c7.92,6.34,16.83,9.11,41.59,12.68,14.46,2.18,22.78,3.76,30.31,6.34,24,7.92,38.82,24.17,42.39,46.15,1,6.34.4,18.42-1.19,24.76-1.39,4.95-5.35,14.06-6.34,14.26-.2,0-.59-1-.59-2.57-.4-8.32-4.56-16.25-11.49-22.39C305,244,294.34,238.68,268.19,228.19Z"/><path id="Path_45" data-name="Path 45" class="cls-1" d="M240.46,234.72a46.84,46.84,0,0,0-2-8.32l-1-3,1.78,2.18a35,35,0,0,1,6.34,11.49c1.39,3.76,1.39,5,1.39,11.09,0,5.94-.2,7.33-1.39,10.7a35.85,35.85,0,0,1-8.32,13.27c-7.13,7.33-16.44,11.29-29.71,13.07-2.38.2-9.11.8-15.05,1.19-14.86.79-24.76,2.38-33.68,5.55-1.18.4-2.37.79-2.57.59-.4-.4,5.74-4,10.69-6.34,6.94-3.36,14.07-5.15,29.72-7.92,7.72-1.19,15.65-2.77,17.63-3.56C233.93,268.6,243.63,253.34,240.46,234.72Z"/><path id="Path_46" data-name="Path 46" class="cls-1" d="M258.49,266.62q-7.73-16.94-3.57-32.09c.4-1,.79-2,1.19-2a8.64,8.64,0,0,1,2.78,1.39c2.37,1.59,7.32,4.36,20,11.29,16.05,8.72,25.16,15.45,31.5,23.18,5.54,6.73,8.91,14.46,10.5,24,1,5.35.4,18.22-1,23.57-4.35,16.83-14.26,30.3-28.72,38a27.34,27.34,0,0,1-4.16,2c-.2,0,.6-2,1.79-4.36,4.75-10.1,5.34-19.81,1.78-30.7-2.18-6.73-6.73-14.85-15.85-28.52C263.84,276.52,261.26,272.36,258.49,266.62Z"/><path id="Path_47" data-name="Path 47" class="cls-1" d="M110.92,327.23c14.66-12.29,32.68-21,49.32-23.77,7.13-1.19,19-.8,25.55,1,10.5,2.77,20,8.71,25,16,4.76,7.13,6.93,13.27,9.12,26.94.79,5.35,1.78,10.9,2,12.08,1.58,7.13,4.75,12.68,8.71,15.65,6.14,4.56,16.84,4.75,27.34.79,1.78-.59,3.36-1.18,3.36-1,.4.4-4.95,4-8.51,5.75a28.13,28.13,0,0,1-14.26,3.36c-9.51,0-17.63-4.95-24.17-14.85-1.39-2-4.16-7.72-6.54-13.07-6.93-16-10.5-20.8-18.62-26.15-7.13-4.56-16.24-5.55-23.17-2.18-9.11,4.36-11.49,16.05-5.15,23.18a20.3,20.3,0,0,0,11.29,5.94,12.09,12.09,0,0,0,13.56-10.4,11.84,11.84,0,0,0,.1-1.68c0-4.76-1.78-7.53-6.53-9.71-6.34-2.77-13.27.4-13.08,6.53,0,2.58,1.19,4.17,3.77,5.35,1.58.8,1.58.8.4.6-5.75-1.19-7.13-8.32-2.57-12.88,5.54-5.54,17.23-3.17,21.19,4.56,1.58,3.17,1.78,9.51.4,13.47-3.37,8.72-12.88,13.27-22.58,10.7-6.54-1.78-9.31-3.57-17.23-11.69-13.87-14.26-19.22-17-39-20l-3.77-.6Z"/><path id="Path_48" data-name="Path 48" class="cls-2" d="M6.73,8.52C52.88,64.58,124,151.73,127.56,156.48c3,4,1.78,7.73-3.17,10.5a30.32,30.32,0,0,1-11.29,3.17,14.31,14.31,0,0,1-9.51-4.16c-1.78-1.78-9.5-13.07-26.94-40.21-13.27-20.8-24.56-38-24.76-38.23-.79-.4-.79-.4,23.38,42.79,15.25,27.13,20.2,36.84,20.2,38,0,2.58-.79,4-4,7.53-5.35,5.94-7.73,12.67-9.51,26.74-2,15.64-7.33,26.74-22.58,45.56-8.92,11.09-10.3,13.07-12.48,17.63-2.77,5.54-3.57,8.71-4,15.84-.4,7.53.4,12.28,2.57,19.41,2,6.34,4.16,10.5,9.51,18.62,4.56,7.13,7.33,12.48,7.33,14.46,0,1.58.4,1.58,7.53,0,17-4,31.1-10.7,38.82-19,4.75-5.15,5.94-7.92,5.94-15.05,0-4.56-.2-5.54-1.38-8.32-2-4.36-5.75-7.92-13.87-13.47C88.73,271,84.18,265,83,257.11c-1-6.74.2-11.29,6.14-23.77,6.14-12.88,7.72-18.22,8.72-31.3.59-8.32,1.58-11.69,4-14.26,2.57-2.77,4.75-3.76,10.9-4.56,10.1-1.39,16.63-4,21.78-8.91,4.56-4.16,6.54-8.32,6.74-14.46l.2-4.56-2.58-2.77C129.54,141.82.59,0,0,0-.2,0,3,3.76,6.73,8.52ZM67.54,290.18A8.17,8.17,0,0,0,65,279.29c-3.37-2.18-8.52-1.19-8.52,1.78a2,2,0,0,0,1.58,2c1.79,1,2,2,.6,4.17s-1.39,4.16.4,5.54c2.77,2.18,6.53,1,8.51-2.57Z"/><path id="Path_49" data-name="Path 49" class="cls-2" d="M147.76,186c-4.75,1.38-9.31,6.53-10.69,11.68-.79,3.17-.4,8.92,1,10.7,2.18,2.77,4.16,3.56,9.7,3.56,10.9,0,20.2-4.75,21.2-10.5,1-4.75-3.17-11.28-8.92-14.26C157.07,185.6,150.93,185,147.76,186Zm12.68,9.9c1.59-2.38,1-5-2-6.74-5.35-3.36-13.47-.59-13.47,4.56,0,2.58,4.16,5.35,8.12,5.35,2.58,0,6.14-1.58,7.33-3.17Z"/></g></svg>