<svg xmlns="http://www.w3.org/2000/svg" width="54" height="54.322" viewBox="0 0 54 54.322">
  <g id="Group_4544" data-name="Group 4544" transform="translate(-118.626 -19.902)">
    <g id="Group_4" data-name="Group 4" transform="translate(118.626 19.902)">
      <path id="Path_6" data-name="Path 6" d="M172.444,56.59l-9.918-34.218-.057-.21L158.3,19.9v33.7l-12.68,15.75L132.953,53.62V19.932l-4.367,2.231L118.808,56.59l-.182.629.474.377,21.552,16.628,4.966-3.4,4.966,3.4L172.137,57.6l.489-.377Zm-42.965-33.7,2.426-1.257V53.368L119.979,56.3Zm11.215,50.037L120.4,57.274l11.829-2.9,12.638,15.707Zm18.65-51.265,2.246,1.213L171.271,56.3l-11.927-2.915Zm-8.787,51.278-4.172-2.86,12.64-15.707,11.814,2.9Z" transform="translate(-118.626 -19.902)"/>
    </g>
  </g>
</svg>
